<svg width="27" height="23" viewBox="0 0 27 23" fill="none" xmlns="http://www.w3.org/2000/svg">
<path d="M7.5 0.5C9.34669 0.5 11.0848 1.64833 12.3848 3.6416C13.6816 5.63028 14.5 8.40726 14.5 11.5C14.5 14.5927 13.6816 17.3697 12.3848 19.3584C11.0848 21.3517 9.34669 22.5 7.5 22.5C5.65331 22.5 3.91519 21.3517 2.61523 19.3584C1.31835 17.3697 0.5 14.5927 0.5 11.5C0.5 8.40726 1.31835 5.63028 2.61523 3.6416C3.91519 1.64833 5.65331 0.5 7.5 0.5Z" stroke="#052E4C"/>
<path d="M7.5 0.5H10.5C14.366 0.5 18 5.70115 18 11.5001C18 17.2991 14.866 22.5 11 22.5H7.5" stroke="#052E4C"/>
<path d="M15.5 22.5C19.366 22.5 22.5 17.2991 22.5 11.5001C22.5 5.70115 18.866 0.5 15 0.5" stroke="#052E4C"/>
<path d="M19.5 22.5C23.366 22.5 26.5 17.2991 26.5 11.5001C26.5 5.70115 22.866 0.5 19 0.5" stroke="#052E4C"/>
<path d="M18 10.5H14.5" stroke="#052E4C"/>
<line x1="16" y1="4.5" x2="13" y2="4.5" stroke="#052E4C"/>
<path d="M17.5 8H14" stroke="#052E4C"/>
</svg>
